<?xml version="1.0" encoding="utf-8"?>
<svg viewBox="224.871 309.695 508.72 256.435" xmlns="http://www.w3.org/2000/svg">
  <g transform="matrix(3.7879, 0, 0, 3.7879, 391.061615, 438.993988)" id="556270">
    <path style="stroke: rgb(0,0,0); stroke-width: 2; stroke-dasharray: none; stroke-linecap: butt; stroke-dashoffset: 0; stroke-linejoin: miter; stroke-miterlimit: 4; is-custom-font: none; font-file-url: none; fill: none; fill-rule: nonzero; opacity: 1;" vector-effect="non-scaling-stroke" transform=" translate(-57.624, -35.6862)" d="M 67.55 24.94 L 67.52 16.08 A 1.74 1.62 -69.1 0 0 67.05 14.92 L 54.44 2.32 A 0.67 0.65 54 0 0 53.68 2.19 L 21.38 18.7 A 1.66 1.63 -89.1 0 0 20.7 19.37 Q 17.81 24.61 15.27 30.03 Q 14.25 32.21 14.25 34.69 Q 14.25 44.77 14.25 55.23 A 0.88 0.87 -77.1 0 0 14.74 56.02 L 40.33 68.88 Q 41.06 69.25 41.89 69.25 L 66.66 69.25 Q 67.18 69.25 67.63 69.02 Q 83.43 61.25 98.7 53.44 Q 99.96 52.8 100.41 52.11 Q 101.09 51.08 100.86 49.85 Q 100.65 48.77 99.24 47.37 Q 86.85 35.06 74.6 22.61 A 0.71 0.7 55.3 0 0 73.8 22.46 L 68.01 25.22 A 0.32 0.31 -13 0 1 67.55 24.94" stroke-linecap="round"/>
  </g>
  <g transform="matrix(3.7879, 0, 0, 3.7879, 582.467896, 438.412811)" id="575334">
    <path style="stroke: rgb(0,0,0); stroke-width: 2; stroke-dasharray: none; stroke-linecap: butt; stroke-dashoffset: 0; stroke-linejoin: miter; stroke-miterlimit: 4; is-custom-font: none; font-file-url: none; fill: none; fill-rule: nonzero; opacity: 1;" vector-effect="non-scaling-stroke" transform=" translate(-63.8593, -36.9479)" d="M 49.81 22.87 L 43.79 17.18 A 0.74 0.66 51.6 0 0 43 17.04 L 24.04 26.57 A 0.98 0.97 -13.4 0 0 23.5 27.44 L 23.5 52.79 A 1.36 1.35 -77.1 0 0 24.26 54.01 Q 26.31 55.02 28.14 55.95 Q 30.11 56.95 32.16 57.48 Q 57.34 63.92 83.05 70.39 A 1.46 1.42 -50.7 0 0 84.02 70.28 L 101.84 61.12 Q 104.71 59.64 103.28 56.76 Q 93.7 37.42 84.5 18.75 Q 83.52 16.76 81.76 15.01 Q 79.3 12.55 79.23 12.48 Q 74.98 7.85 70.31 3.64 A 0.72 0.7 -37.7 0 0 69.51 3.55 L 51 12.96 A 1.38 1.36 -13.5 0 0 50.25 14.16 L 50.2 22.69 Q 50.2 23.23 49.81 22.87" stroke-linecap="round"/>
  </g>
  <g transform="matrix(3.7879, 0, 0, 3.7879, 581.583679, 438.614288)" id="737493">
    <path style="stroke: rgb(0,0,0); stroke-width: 2; stroke-dasharray: none; stroke-linecap: butt; stroke-dashoffset: 0; stroke-linejoin: miter; stroke-miterlimit: 4; is-custom-font: none; font-file-url: none; fill: none; fill-rule: nonzero; opacity: 1;" vector-effect="non-scaling-stroke" transform=" translate(-63.6259, -37.0011)" d="M 43.79 23.94 A 0.81 0.78 53 0 0 42.87 23.79 L 30.85 29.98 A 0.4 0.39 54.4 0 0 30.75 30.6 Q 35.83 36.04 40.9 41.07 Q 43.27 43.42 46.33 44.97 Q 64.53 54.17 83.11 63.52 A 1.05 1.01 -43.8 0 0 84.03 63.52 L 96.24 57.41 A 0.67 0.66 -26.8 0 0 96.54 56.52 Q 88.05 39.59 79.85 22.74 Q 77.62 18.16 76.05 16.15 Q 73.84 13.33 70.65 10.68 A 1.29 1.23 50.6 0 0 69.26 10.51 L 57.5 16.57 A 0.39 0.39 55.5 0 0 57.39 17.18 Q 62.43 22.65 67.71 27.88 Q 70.13 30.28 71.59 33.12 Q 75.03 39.78 77.74 45.85 Q 78.58 47.75 76.72 46.82 Q 67 42 58.85 37.86 Q 56.4 36.62 53.06 33.19 Q 48.87 28.88 43.79 23.94" stroke-linecap="round"/>
  </g>
  <g transform="matrix(3.7879, 0, 0, 3.7879, 579.689819, 436.720398)" id="327818">
    <path style="stroke: none; stroke-width: 0; stroke-dasharray: none; stroke-linecap: butt; stroke-dashoffset: 0; stroke-linejoin: miter; stroke-miterlimit: 4; is-custom-font: none; font-file-url: none; fill: rgb(5,15,0); fill-rule: nonzero; opacity: 1;" transform=" translate(-63.6259, -37.0011)" d="M 43.79 23.94 Q 48.87 28.88 53.06 33.19 Q 56.4 36.62 58.85 37.86 Q 67 42 76.72 46.82 Q 78.58 47.75 77.74 45.85 Q 75.03 39.78 71.59 33.12 Q 70.13 30.28 67.71 27.88 Q 62.43 22.65 57.39 17.18 A 0.39 0.39 55.5 0 1 57.5 16.57 L 69.26 10.51 A 1.29 1.23 50.6 0 1 70.65 10.68 Q 73.84 13.33 76.05 16.15 Q 77.62 18.16 79.85 22.74 Q 88.05 39.59 96.54 56.52 A 0.67 0.66 -26.8 0 1 96.24 57.41 L 84.03 63.52 A 1.05 1.01 -43.8 0 1 83.11 63.52 Q 64.53 54.17 46.33 44.97 Q 43.27 43.42 40.9 41.07 Q 35.83 36.04 30.75 30.6 A 0.4 0.39 54.4 0 1 30.85 29.98 L 42.87 23.79 A 0.81 0.78 53 0 1 43.79 23.94 Z" stroke-linecap="round"/>
  </g>
  <g transform="matrix(3.7879, 0, 0, 3.7879, 580.573975, 436.518799)" id="104322">
    <path style="stroke: none; stroke-width: 0; stroke-dasharray: none; stroke-linecap: butt; stroke-dashoffset: 0; stroke-linejoin: miter; stroke-miterlimit: 4; is-custom-font: none; font-file-url: none; fill: rgb(255,255,255); fill-rule: nonzero; opacity: 1;" transform=" translate(-63.8593, -36.9479)" d="M 50.2 22.69 L 50.25 14.16 A 1.38 1.36 -13.5 0 1 51 12.96 L 69.51 3.55 A 0.72 0.7 -37.7 0 1 70.31 3.64 Q 74.98 7.85 79.23 12.48 Q 79.3 12.55 81.76 15.01 Q 83.52 16.76 84.5 18.75 Q 93.7 37.42 103.28 56.76 Q 104.71 59.64 101.84 61.12 L 84.02 70.28 A 1.46 1.42 -50.7 0 1 83.05 70.39 Q 57.34 63.92 32.16 57.48 Q 30.11 56.95 28.14 55.95 Q 26.31 55.02 24.26 54.01 A 1.36 1.35 -77.1 0 1 23.5 52.79 L 23.5 27.44 A 0.98 0.97 -13.4 0 1 24.04 26.57 L 43 17.04 A 0.74 0.66 51.6 0 1 43.79 17.18 L 49.81 22.87 Q 50.2 23.23 50.2 22.69 Z M 43.79 23.94 A 0.81 0.78 53 0 0 42.87 23.79 L 30.85 29.98 A 0.4 0.39 54.4 0 0 30.75 30.6 Q 35.83 36.04 40.9 41.07 Q 43.27 43.42 46.33 44.97 Q 64.53 54.17 83.11 63.52 A 1.05 1.01 -43.8 0 0 84.03 63.52 L 96.24 57.41 A 0.67 0.66 -26.8 0 0 96.54 56.52 Q 88.05 39.59 79.85 22.74 Q 77.62 18.16 76.05 16.15 Q 73.84 13.33 70.65 10.68 A 1.29 1.23 50.6 0 0 69.26 10.51 L 57.5 16.57 A 0.39 0.39 55.5 0 0 57.39 17.18 Q 62.43 22.65 67.71 27.88 Q 70.13 30.28 71.59 33.12 Q 75.03 39.78 77.74 45.85 Q 78.58 47.75 76.72 46.82 Q 67 42 58.85 37.86 Q 56.4 36.62 53.06 33.19 Q 48.87 28.88 43.79 23.94 Z" stroke-linecap="round"/>
  </g>
  <g transform="matrix(3.7879, 0, 0, 3.7879, 390.478394, 439.155609)" id="674225">
    <path style="stroke: rgb(0,0,0); stroke-width: 2; stroke-dasharray: none; stroke-linecap: butt; stroke-dashoffset: 0; stroke-linejoin: miter; stroke-miterlimit: 4; is-custom-font: none; font-file-url: none; fill: none; fill-rule: nonzero; opacity: 1;" vector-effect="non-scaling-stroke" transform=" translate(-57.4701, -35.7289)" d="M 73.49 49.4 L 61.51 55.45 A 0.73 0.69 -35.7 0 1 60.7 55.34 L 34.59 29.35 A 0.38 0.36 -35.9 0 1 34.7 28.76 L 60.4 15.71 A 0.37 0.36 -35.9 0 0 60.5 15.13 L 54.54 9.16 A 0.71 0.69 53.6 0 0 53.74 9.03 L 28.13 21.96 A 1.59 1.43 -2.2 0 0 27.45 22.62 L 21.16 35.03 A 1.05 1.03 35.9 0 0 21.37 36.24 L 47.01 61.89 A 2.13 2.1 66.9 0 0 48.49 62.5 L 66.94 62.5 Q 67.45 62.5 67.91 62.27 L 93.69 49.25 A 0.37 0.37 53.8 0 0 93.78 48.66 L 74.6 29.36 A 0.73 0.67 53.9 0 0 73.79 29.2 L 61.43 35.5 A 0.39 0.36 54.5 0 0 61.35 36.1 L 73.6 48.82 A 0.37 0.36 -35.3 0 1 73.49 49.4" stroke-linecap="round"/>
  </g>
  <g transform="matrix(3.7879, 0, 0, 3.7879, 389.167694, 437.100098)" id="227822">
    <path style="stroke: none; stroke-width: 0; stroke-dasharray: none; stroke-linecap: butt; stroke-dashoffset: 0; stroke-linejoin: miter; stroke-miterlimit: 4; is-custom-font: none; font-file-url: none; fill: rgb(255,255,255); fill-rule: nonzero; opacity: 1;" transform=" translate(-57.624, -35.6862)" d="M 68.01 25.22 L 73.8 22.46 A 0.71 0.7 55.3 0 1 74.6 22.61 Q 86.85 35.06 99.24 47.37 Q 100.65 48.77 100.86 49.85 Q 101.09 51.08 100.41 52.11 Q 99.96 52.8 98.7 53.44 Q 83.43 61.25 67.63 69.02 Q 67.18 69.25 66.66 69.25 L 41.89 69.25 Q 41.06 69.25 40.33 68.88 L 14.74 56.02 A 0.88 0.87 -77.1 0 1 14.25 55.23 Q 14.25 44.77 14.25 34.69 Q 14.25 32.21 15.27 30.03 Q 17.81 24.61 20.7 19.37 A 1.66 1.63 -89.1 0 1 21.38 18.7 L 53.68 2.19 A 0.67 0.65 54 0 1 54.44 2.32 L 67.05 14.92 A 1.74 1.62 -69.1 0 1 67.52 16.08 L 67.55 24.94 A 0.32 0.31 -13 0 0 68.01 25.22 Z M 73.49 49.4 L 61.51 55.45 A 0.73 0.69 -35.7 0 1 60.7 55.34 L 34.59 29.35 A 0.38 0.36 -35.9 0 1 34.7 28.76 L 60.4 15.71 A 0.37 0.36 -35.9 0 0 60.5 15.13 L 54.54 9.16 A 0.71 0.69 53.6 0 0 53.74 9.03 L 28.13 21.96 A 1.59 1.43 -2.2 0 0 27.45 22.62 L 21.16 35.03 A 1.05 1.03 35.9 0 0 21.37 36.24 L 47.01 61.89 A 2.13 2.1 66.9 0 0 48.49 62.5 L 66.94 62.5 Q 67.45 62.5 67.91 62.27 L 93.69 49.25 A 0.37 0.37 53.8 0 0 93.78 48.66 L 74.6 29.36 A 0.73 0.67 53.9 0 0 73.79 29.2 L 61.43 35.5 A 0.39 0.36 54.5 0 0 61.35 36.1 L 73.6 48.82 A 0.37 0.36 -35.3 0 1 73.49 49.4 Z" stroke-linecap="round"/>
  </g>
  <g transform="matrix(3.7879, 0, 0, 3.7879, 388.584503, 437.261597)" id="582119">
    <path style="stroke: none; stroke-width: 0; stroke-dasharray: none; stroke-linecap: butt; stroke-dashoffset: 0; stroke-linejoin: miter; stroke-miterlimit: 4; is-custom-font: none; font-file-url: none; fill: rgb(5,15,0); fill-rule: nonzero; opacity: 1;" transform=" translate(-57.4701, -35.7289)" d="M 73.6 48.82 L 61.35 36.1 A 0.39 0.36 54.5 0 1 61.43 35.5 L 73.79 29.2 A 0.73 0.67 53.9 0 1 74.6 29.36 L 93.78 48.66 A 0.37 0.37 53.8 0 1 93.69 49.25 L 67.91 62.27 Q 67.45 62.5 66.94 62.5 L 48.49 62.5 A 2.13 2.1 66.9 0 1 47.01 61.89 L 21.37 36.24 A 1.05 1.03 35.9 0 1 21.16 35.03 L 27.45 22.62 A 1.59 1.43 -2.2 0 1 28.13 21.96 L 53.74 9.03 A 0.71 0.69 53.6 0 1 54.54 9.16 L 60.5 15.13 A 0.37 0.36 -35.9 0 1 60.4 15.71 L 34.7 28.76 A 0.38 0.36 -35.9 0 0 34.59 29.35 L 60.7 55.34 A 0.73 0.69 -35.7 0 0 61.51 55.45 L 73.49 49.4 A 0.37 0.36 -35.3 0 0 73.6 48.82 Z" stroke-linecap="round"/>
  </g>
</svg>